<?xml version="1.0" encoding="UTF-8" standalone="no"?>
<!DOCTYPE svg PUBLIC "-//W3C//DTD SVG 1.1//EN" "http://www.w3.org/Graphics/SVG/1.1/DTD/svg11.dtd">
<svg width="100%" height="100%" viewBox="0 0 381 284" version="1.1" xmlns="http://www.w3.org/2000/svg" xmlns:xlink="http://www.w3.org/1999/xlink" xml:space="preserve" xmlns:serif="http://www.serif.com/" style="fill-rule:evenodd;clip-rule:evenodd;stroke-linejoin:round;stroke-miterlimit:2;">
    <g transform="matrix(1,0,0,1,-52.494,-49.7429)">
        <g transform="matrix(1,0,0,1,409.332,110.159)">
            <path d="M0,-49.695L-5.045,-51.713L-13.117,-29.009L-25.352,-20.433C-26.613,-22.072 -29.009,-25.352 -32.415,-30.27L-39.982,-24.847L-21.189,2.018L-13.496,-3.405L-20.433,-13.243L-14.631,-17.405L-6.685,-15.009L-5.423,-21.946L15.767,-21.946L15.893,-27.244L-3.658,-30.27L0,-49.695Z" style="fill:white;fill-rule:nonzero;"/>
        </g>
        <g transform="matrix(1,0,0,1,432.666,286.866)">
            <path d="M0,-190.707L-0.126,-190.707L-37.586,-169.895L-40.739,-167.877L-40.361,-160.94C-45.28,-161.066 -49.569,-161.066 -53.353,-161.193L-69.119,-152.49C-68.488,-151.48 -67.731,-150.472 -66.975,-149.336L-86.398,-135.715L-86.398,-135.589L-106.831,-121.209L-112.002,-128.652L-122.472,-122.85L-116.039,-113.642L-132.436,-102.165L-141.517,-111.498C-153.499,-103.047 -161.95,-97.245 -166.743,-93.966C-165.733,-92.579 -163.211,-88.921 -159.049,-83.119L-175.571,-72.145L-176.076,-72.65L-220.6,-41.37L-220.348,-35.441L-236.618,-31.658L-232.204,-14.505L-253.016,-5.676L-261.97,-20.559C-264.997,-18.666 -269.79,-15.513 -276.728,-10.973L-291.232,-27.496L-280.259,-40.992L-294.259,-51.713L-282.529,-71.515C-274.961,-68.488 -269.538,-66.218 -266.385,-64.83C-265.375,-67.353 -264.367,-69.749 -263.483,-72.272L-260.078,-81.101L-251.124,-79.209L-210.509,-107.587L-210.636,-107.587L-167.248,-138.111L-114.273,-175.32L-114.147,-175.193L-84.002,-196.256L-36.325,-237.123L-90.813,-237.123L-165.103,-173.554C-167.752,-172.04 -169.013,-169.644 -168.887,-166.616C-168.761,-164.473 -168.004,-162.581 -166.617,-160.94L-173.554,-155.012L-213.41,-112.002C-213.41,-112.38 -213.663,-112.633 -213.915,-112.759C-214.167,-112.885 -214.546,-113.011 -214.798,-113.011L-214.798,-115.156C-214.798,-115.408 -214.924,-115.66 -215.05,-115.912C-215.177,-116.165 -215.429,-116.29 -215.681,-116.417C-215.933,-116.669 -216.185,-116.669 -216.438,-116.669L-218.96,-116.417L-213.789,-127.516C-213.663,-127.895 -213.537,-128.146 -213.663,-128.525C-213.789,-128.777 -213.915,-129.156 -214.167,-129.283C-214.546,-129.534 -214.798,-129.661 -215.177,-129.661C-215.555,-129.661 -215.933,-129.534 -216.06,-129.283L-221.861,-124.363L-219.717,-131.679C-219.591,-131.93 -219.591,-132.436 -219.717,-132.687C-219.843,-133.066 -220.095,-133.191 -220.348,-133.444C-220.726,-133.697 -221.104,-133.697 -221.483,-133.571L-223.753,-133.066L-219.97,-147.066C-219.97,-147.571 -219.97,-147.823 -220.222,-148.202C-220.348,-148.58 -220.6,-148.832 -220.978,-148.958C-221.483,-149.084 -221.861,-148.958 -222.239,-148.832L-226.276,-146.562L-220.348,-164.724L-220.348,-165.859C-220.6,-166.112 -220.726,-166.364 -220.978,-166.616C-221.356,-166.742 -221.608,-166.869 -221.987,-166.742C-222.366,-166.742 -222.744,-166.616 -222.87,-166.364L-229.682,-159.805L-227.159,-196.005C-227.032,-196.256 -227.159,-196.635 -227.411,-196.887C-227.537,-197.266 -227.915,-197.392 -228.294,-197.518C-228.672,-197.518 -229.051,-197.518 -229.303,-197.392C-229.682,-197.266 -229.807,-196.887 -230.06,-196.635L-237.88,-175.32L-236.997,-195.122C-236.997,-195.626 -236.997,-195.878 -237.249,-196.131C-237.501,-196.509 -237.88,-196.761 -238.258,-196.761C-238.636,-196.887 -238.889,-196.761 -239.267,-196.509C-239.52,-196.256 -239.897,-196.005 -239.897,-195.626L-252.763,-144.418L-254.402,-149.463C-254.528,-149.841 -254.655,-150.094 -255.033,-150.219C-255.285,-150.472 -255.538,-150.598 -255.916,-150.598C-256.294,-150.598 -256.547,-150.472 -256.799,-150.219C-257.177,-150.094 -257.177,-149.715 -257.304,-149.336L-260.583,-131.805L-261.844,-133.823L-266.637,-163.462C-266.637,-163.968 -266.89,-164.22 -267.142,-164.473C-267.521,-164.724 -267.898,-164.85 -268.151,-164.724C-268.529,-164.724 -268.907,-164.598 -269.16,-164.22C-269.412,-163.968 -269.538,-163.589 -269.538,-163.337L-269.538,-133.066L-274.583,-145.301C-274.709,-145.679 -274.961,-145.805 -275.214,-146.057C-275.719,-146.31 -276.097,-146.31 -276.349,-146.184C-276.728,-146.184 -276.979,-145.805 -277.231,-145.553C-277.358,-145.174 -277.61,-144.922 -277.484,-144.418L-271.683,-103.299L-276.601,-107.209C-276.854,-107.335 -277.106,-107.587 -277.484,-107.587C-277.736,-107.587 -278.115,-107.462 -278.367,-107.335C-278.619,-107.083 -278.871,-106.831 -278.998,-106.579L-278.998,-105.57L-273.196,-84.885L-289.971,-106.957C-290.097,-107.335 -290.35,-107.462 -290.854,-107.587C-291.232,-107.587 -291.61,-107.587 -291.863,-107.335C-292.115,-107.209 -292.494,-106.957 -292.494,-106.579L-294.386,-101.029L-317.341,-132.057C-317.72,-132.436 -317.972,-132.561 -318.35,-132.561C-318.854,-132.687 -319.107,-132.561 -319.485,-132.436C-319.738,-132.31 -319.99,-131.93 -320.115,-131.679C-320.242,-131.3 -320.242,-130.795 -319.99,-130.544L-303.972,-96.867L-308.007,-98.632L-328.314,-116.669C-328.566,-116.921 -328.945,-117.048 -329.197,-117.048C-329.575,-117.048 -329.828,-116.921 -330.206,-116.669C-330.458,-116.543 -330.711,-116.165 -330.711,-115.787C-330.837,-115.408 -330.711,-115.156 -330.458,-114.777L-322.26,-100.65L-355.558,-126.885C-355.937,-127.264 -356.188,-127.391 -356.567,-127.264C-356.945,-127.264 -357.324,-127.012 -357.576,-126.759C-357.954,-126.507 -357.954,-126.254 -357.954,-125.75C-357.954,-125.373 -357.954,-124.993 -357.576,-124.742L-338.531,-103.047L-342.945,-106.453C-343.324,-106.579 -343.576,-106.705 -343.828,-106.705C-344.333,-106.705 -344.585,-106.579 -344.837,-106.326C-345.089,-106.201 -345.342,-105.948 -345.342,-105.57C-345.342,-105.318 -345.342,-104.813 -345.216,-104.561L-344.08,-102.29L-363.63,-112.002C-364.009,-112.255 -364.387,-112.255 -364.766,-112.255C-365.144,-112.128 -365.396,-111.876 -365.648,-111.624C-365.9,-111.246 -366.027,-110.994 -365.9,-110.489C-365.9,-110.111 -365.648,-109.858 -365.27,-109.606L-359.216,-104.182L-376.37,-113.011C-376.622,-113.264 -377,-113.264 -377.379,-113.264C-377.757,-113.138 -378.135,-112.885 -378.262,-112.633C-378.514,-112.38 -378.64,-112.002 -378.64,-111.624C-378.514,-111.246 -378.388,-110.994 -378.135,-110.615L-348.747,-82.866L-370.063,-83.497C-370.441,-83.497 -370.693,-83.371 -371.072,-83.119C-371.324,-82.993 -371.577,-82.614 -371.577,-82.236C-371.577,-81.858 -371.577,-81.478 -371.324,-81.101C-371.198,-80.848 -370.946,-80.722 -370.567,-80.47L-341.18,-71.263L-353.54,-62.811C-353.918,-62.56 -354.17,-62.181 -354.17,-61.803C-354.17,-61.298 -354.17,-60.92 -353.918,-60.668C-353.792,-60.289 -353.54,-60.037 -353.036,-59.911L-321.755,-52.848L-322.639,-52.469C-322.891,-52.469 -323.269,-52.344 -323.395,-52.091C-323.521,-51.839 -323.647,-51.46 -323.647,-51.082C-323.647,-50.83 -323.647,-50.578 -323.395,-50.325C-323.269,-49.946 -323.143,-49.821 -322.765,-49.695L-312.296,-45.532L-316.08,-41.874C-316.458,-41.748 -316.458,-41.37 -316.584,-40.992C-316.584,-40.739 -316.458,-40.361 -316.332,-39.982C-316.08,-39.73 -315.827,-39.478 -315.575,-39.352L-308.764,-37.082C-308.638,-36.956 -308.512,-36.956 -308.26,-36.956L-303.719,-36.956L-339.035,-24.469C-339.287,-24.469 -339.666,-24.217 -339.792,-23.838C-339.918,-23.712 -340.044,-23.334 -340.044,-22.955C-339.918,-22.577 -339.918,-22.325 -339.666,-22.073C-339.287,-21.82 -339.035,-21.694 -338.657,-21.694L-324.025,-19.928L-368.423,2.271C-368.676,2.523 -369.054,2.775 -369.054,3.154C-369.18,3.406 -369.18,3.784 -369.054,4.163C-369.054,4.541 -368.802,4.793 -368.549,4.92C-368.171,5.171 -367.793,5.297 -367.414,5.171L-340.675,-0.125L-379.271,20.938L-379.271,21.064C-379.775,21.19 -380.027,21.568 -380.027,21.947C-380.279,22.325 -380.153,22.703 -380.027,23.082C-379.775,23.46 -379.522,23.713 -379.145,23.839C-378.766,23.964 -378.388,23.964 -378.009,23.713L-328.314,0.757L-373.216,37.46L-373.469,37.46L-373.595,37.587C-373.847,37.838 -374.099,38.091 -374.099,38.47C-374.099,38.975 -374.099,39.353 -373.847,39.606C-373.595,39.983 -373.216,40.236 -372.838,40.236C-372.459,40.236 -372.081,40.236 -371.703,39.983L-364.009,34.812L-366.91,41.245C-367.162,41.497 -367.162,41.875 -367.036,42.128C-367.036,42.506 -366.784,42.632 -366.531,43.01C-366.405,43.136 -366.027,43.263 -365.774,43.263C-365.396,43.389 -365.144,43.263 -364.766,43.136L-303.593,6.685L-308.007,11.352C-308.26,11.604 -308.386,11.982 -308.386,12.361C-308.386,12.739 -308.26,12.992 -308.134,13.37C-307.881,13.622 -307.629,13.749 -307.125,13.875C-306.746,14.001 -306.368,13.749 -305.989,13.622L-301.701,10.721L-321.882,37.208C-322.134,37.46 -322.134,37.838 -322.134,38.218C-322.134,38.596 -322.008,38.975 -321.63,39.226C-321.377,39.479 -320.999,39.606 -320.62,39.606C-320.242,39.606 -319.863,39.479 -319.611,39.226L-294.638,17.027L-293.124,26.74C-293.124,27.118 -292.872,27.244 -292.746,27.623C-292.494,27.749 -292.241,27.875 -291.989,28.001C-291.61,28.127 -291.484,28.001 -291.106,27.875C-290.854,27.749 -290.602,27.623 -290.35,27.371L-275.214,5.297L-275.466,12.361C-275.466,12.739 -275.466,12.992 -275.214,13.37C-275.088,13.622 -274.709,13.749 -274.331,14.001C-273.952,14.001 -273.574,14.001 -273.322,13.749C-272.943,13.622 -272.817,13.37 -272.691,12.992L-267.142,0.883L-268.781,21.316C-268.907,21.82 -268.781,22.199 -268.529,22.452C-268.276,22.83 -267.898,22.956 -267.646,23.082C-267.268,23.082 -266.89,23.082 -266.511,22.83L-264.367,21.695L-264.367,44.776C-264.367,45.155 -264.367,45.407 -264.114,45.659C-263.862,46.038 -263.483,46.163 -263.231,46.29C-262.853,46.416 -262.601,46.29 -262.223,46.163C-261.844,46.038 -261.718,45.659 -261.592,45.407L-252.511,26.361L-247.97,42.001C-247.97,42.379 -247.718,42.632 -247.465,42.884C-247.087,43.136 -246.834,43.136 -246.456,43.136C-246.204,43.136 -245.826,43.01 -245.573,42.758C-245.321,42.506 -245.195,42.253 -245.069,41.875L-242.672,28.379L-240.654,33.172C-240.528,33.424 -240.276,33.803 -239.897,33.93C-239.646,34.055 -239.267,34.055 -238.889,34.055C-238.636,33.93 -238.258,33.803 -238.005,33.424C-237.88,33.172 -237.627,32.793 -237.754,32.416L-238.132,27.749L-223.753,45.281C-223.627,45.533 -223.375,45.785 -223.123,45.912L-222.113,45.912C-221.861,45.659 -221.608,45.533 -221.483,45.281C-221.23,44.902 -221.23,44.65 -221.23,44.272L-221.483,37.838L-215.302,43.641C-215.177,43.767 -214.798,43.894 -214.546,43.894C-214.167,44.02 -213.915,43.894 -213.663,43.894C-213.41,43.641 -213.158,43.515 -212.906,43.136C-212.78,42.758 -212.78,42.506 -212.78,42.253L-215.177,25.605L-205.086,34.812C-204.96,35.191 -204.582,35.191 -204.077,35.191C-203.825,35.191 -203.446,35.191 -203.194,34.938C-202.815,34.686 -202.689,34.434 -202.563,33.93C-202.563,33.55 -202.563,33.299 -202.815,32.92L-213.915,14.883L-203.068,22.83C-202.689,22.956 -202.438,23.082 -202.059,23.082C-201.807,23.082 -201.554,22.956 -201.303,22.83C-201.05,22.578 -200.798,22.452 -200.798,22.073C-200.672,21.82 -200.545,21.568 -200.672,21.19L-201.933,15.388L-182.004,29.01C-181.752,29.262 -181.374,29.389 -180.995,29.389C-180.617,29.262 -180.364,29.01 -179.986,28.758C-179.86,28.379 -179.734,28.127 -179.734,27.749C-179.86,27.244 -179.86,26.992 -180.112,26.74L-195.878,11.478L-185.41,13.118C-185.031,13.244 -184.779,13.118 -184.4,12.992C-184.148,12.739 -183.896,12.487 -183.644,12.109L-183.644,11.1C-183.77,10.848 -184.022,10.469 -184.274,10.343L-202.563,-1.639L-200.041,-2.27C-199.789,-2.396 -199.536,-2.648 -199.411,-2.901C-199.158,-3.153 -199.031,-3.531 -199.031,-3.784C-199.031,-4.162 -199.031,-4.415 -199.284,-4.666C-199.536,-4.919 -199.789,-5.17 -200.041,-5.297L-211.267,-8.577L-214.167,-11.225L-210.888,-10.973C-210.636,-10.973 -210.257,-10.973 -210.005,-11.099C-209.753,-11.352 -209.626,-11.603 -209.501,-11.856C-209.375,-12.234 -209.375,-12.487 -209.375,-12.864C-209.501,-13.117 -209.626,-13.495 -209.879,-13.622L-220.726,-22.45L-215.933,-21.189C-215.429,-21.189 -215.177,-21.189 -214.798,-21.315C-214.546,-21.568 -214.167,-21.82 -214.041,-22.325C-213.915,-22.703 -214.041,-23.081 -214.167,-23.334L-214.546,-23.838L-200.293,-17.784C-200.041,-17.658 -199.789,-17.532 -199.536,-17.658C-199.158,-17.784 -198.905,-17.91 -198.78,-18.036C-198.527,-18.289 -198.274,-18.54 -198.274,-18.793C-198.274,-19.171 -198.274,-19.424 -198.401,-19.802L-198.527,-20.054L-186.923,-9.333C-186.797,-9.081 -186.419,-8.954 -186.041,-8.954C-185.662,-8.954 -185.41,-9.081 -185.031,-9.207C-184.779,-9.46 -184.527,-9.838 -184.4,-10.216C-184.4,-10.468 -184.4,-10.973 -184.653,-11.225L-187.049,-15.387L-177.338,-9.207C-176.959,-8.954 -176.707,-8.954 -176.202,-8.954C-175.95,-9.081 -175.571,-9.207 -175.446,-9.333C-175.067,-9.711 -174.941,-9.964 -174.941,-10.342L-174.815,-11.225L-168.509,-7.946C-168.256,-7.819 -168.004,-7.819 -167.625,-7.819C-167.248,-7.946 -167.121,-7.946 -166.868,-8.072C-166.617,-8.324 -166.491,-8.577 -166.364,-8.954L-165.607,-11.225L-145.175,-1.135C-144.796,-1.009 -144.418,-1.009 -144.039,-1.135C-143.788,-1.135 -143.408,-1.513 -143.283,-1.766C-143.031,-2.144 -142.904,-2.396 -142.904,-2.901C-143.031,-3.153 -143.283,-3.531 -143.535,-3.658L-164.22,-20.685L-163.337,-20.811C-162.959,-20.811 -162.707,-21.063 -162.454,-21.189C-162.203,-21.315 -162.076,-21.694 -161.95,-21.946C-161.823,-22.325 -161.95,-22.577 -162.076,-22.955C-162.203,-23.207 -162.328,-23.334 -162.707,-23.586L-163.464,-24.09L-146.562,-18.54C-146.184,-18.415 -145.805,-18.415 -145.427,-18.666C-145.175,-18.793 -144.796,-19.045 -144.67,-19.297C-144.544,-19.676 -144.544,-20.054 -144.544,-20.433C-144.67,-20.811 -144.922,-21.063 -145.3,-21.189L-150.976,-24.721L-115.535,-16.901C-115.156,-16.775 -114.904,-16.901 -114.525,-17.027C-114.273,-17.279 -114.021,-17.532 -113.768,-17.91L-113.768,-19.045C-114.021,-19.297 -114.273,-19.55 -114.525,-19.802L-129.282,-27.118L-125.625,-26.739C-125.246,-26.739 -124.994,-26.865 -124.615,-26.991C-124.364,-27.243 -124.237,-27.496 -123.984,-28C-123.984,-28.252 -123.984,-28.757 -124.237,-29.01C-124.364,-29.388 -124.742,-29.514 -125.12,-29.64L-135.336,-33.172C-135.21,-33.172 -134.958,-33.297 -134.706,-33.424C-134.454,-33.803 -134.454,-34.055 -134.328,-34.433C-134.328,-34.811 -134.454,-35.064 -134.58,-35.441C-134.832,-35.694 -135.21,-35.946 -135.463,-35.946L-141.139,-37.208L-107.461,-37.333C-107.083,-37.333 -106.705,-37.586 -106.453,-37.713C-106.2,-37.964 -106.075,-38.217 -105.949,-38.469L-105.949,-39.478C-106.2,-39.73 -106.327,-39.982 -106.58,-40.109L-106.831,-40.361L-85.515,-41.748C-85.264,-41.748 -84.885,-42.001 -84.633,-42.253C-84.254,-42.505 -84.128,-42.884 -84.128,-43.262C-84.128,-43.64 -84.254,-43.893 -84.633,-44.27C-84.885,-44.523 -85.264,-44.775 -85.515,-44.775L-128.778,-48.181L-125.499,-48.434C-125.12,-48.56 -124.742,-48.56 -124.489,-48.938C-124.237,-49.19 -124.111,-49.442 -123.984,-49.821C-123.984,-50.199 -124.111,-50.578 -124.364,-50.83C-124.615,-51.207 -124.994,-51.334 -125.246,-51.46L-128.147,-51.839L-99.894,-60.794C-99.39,-60.92 -99.138,-61.173 -99.011,-61.425C-98.759,-61.803 -98.633,-62.181 -98.759,-62.434C-98.759,-62.811 -99.011,-63.19 -99.263,-63.442C-99.642,-63.695 -100.021,-63.821 -100.399,-63.695L-143.408,-60.415L-132.057,-65.587C-131.805,-65.713 -131.426,-65.965 -131.301,-66.343C-131.174,-66.596 -131.174,-66.974 -131.301,-67.479C-131.426,-67.857 -131.553,-68.11 -131.931,-68.235C-132.184,-68.488 -132.562,-68.488 -132.94,-68.488L-147.066,-66.218L-146.562,-69.119C-146.562,-69.497 -146.562,-69.749 -146.688,-70.001C-146.941,-70.38 -147.192,-70.632 -147.571,-70.758C-147.823,-70.884 -148.202,-70.884 -148.454,-70.758L-166.868,-64.957L-164.22,-66.343C-163.968,-66.596 -163.715,-66.848 -163.589,-67.227C-163.464,-67.479 -163.464,-67.857 -163.589,-68.235C-163.715,-68.488 -163.968,-68.866 -164.22,-69.119C-164.599,-69.245 -164.977,-69.245 -165.355,-69.119L-179.608,-66.47L-179.481,-66.848C-179.355,-67.227 -179.481,-67.479 -179.608,-67.857L-127.264,-89.425L-119.318,-93.966C-118.309,-91.948 -116.796,-90.561 -114.778,-89.677C-111.876,-88.668 -109.228,-89.046 -106.831,-90.938L0,-150.346L0,-190.707Z" style="fill:white;fill-rule:nonzero;"/>
        </g>
        <g transform="matrix(1,0,0,1,363.295,128.574)">
            <path d="M0,-28L1.892,-25.351L-20.433,-9.711L-22.199,-12.36L0,-28ZM6.811,-18.289C8.577,-19.676 11.226,-21.441 14.505,-23.586L2.522,-40.361L-34.812,-14.125L-16.144,12.361L-8.576,7.064L-15.388,-2.647L-3.531,-11.099C-2.649,-10.972 5.55,-10.846 20.812,-10.721L20.56,-16.018L6.811,-18.289Z" style="fill:white;fill-rule:nonzero;"/>
        </g>
        <g transform="matrix(1,0,0,1,313.853,162.126)">
            <path d="M0,-27.119L2.144,-24.218L-19.803,-7.316L-22.577,-11.226L0,-27.119ZM18.415,-36.579L9.586,-29.768C8.325,-31.533 6.054,-34.686 2.648,-39.479L-36.326,-12.11L-12.613,12.36L-8.073,9.207L-16.396,-2.65L6.811,-17.533L13.875,-7.443L21.442,-12.741L14.631,-22.452L23.965,-28.506L18.415,-36.579Z" style="fill:white;fill-rule:nonzero;"/>
        </g>
        <g transform="matrix(1,0,0,1,258.356,183.441)">
            <path d="M0,-9.46C0.379,-9.712 0.757,-9.964 1.135,-10.216C1.387,-10.469 1.766,-10.721 2.145,-10.847L12.487,-18.163L14.253,-15.388L-8.324,0.504C-8.829,-0.127 -9.207,-0.757 -9.586,-1.388C-9.838,-1.64 -10.09,-1.893 -10.216,-2.271L0,-9.46ZM26.866,-13.496L15.01,-30.523L-24.09,-3.154L-0.126,21.063L4.036,18.288C0.379,12.865 -2.145,9.333 -3.279,7.567C-1.135,5.928 8.955,-1.009 26.866,-13.496" style="fill:white;fill-rule:nonzero;"/>
        </g>
        <g transform="matrix(1,0,0,1,233.886,214.468)">
            <path d="M0,-8.577L1.137,-6.811L-27.243,18.415L-23.964,22.829L14.38,-4.162L2.523,-21.064L-27.496,0.126L-28.757,-1.64L-0.251,-26.992L-3.404,-31.406L-42,-4.289L-30.271,12.486L0,-8.577Z" style="fill:white;fill-rule:nonzero;"/>
        </g>
        <g transform="matrix(1,0,0,1,184.949,250.541)">
            <path d="M0,-15.009L1.135,-33.802L-7.441,-35.694L-8.451,-33.172C-11.099,-25.856 -13.117,-20.937 -14.126,-18.036C-17.027,-19.298 -22.703,-21.695 -31.532,-25.225L-36.199,-17.406L-21.189,-5.928C-23.081,-3.531 -27.118,1.261 -33.172,8.703L-27.496,15.01L-11.729,4.667L-2.145,20.685L6.054,17.154L1.262,-1.009L19.172,-5.423L18.919,-14.253L0,-15.009Z" style="fill:white;fill-rule:nonzero;"/>
        </g>
        <g transform="matrix(1,0,0,1,193.274,226.324)">
            <path d="M0,1.64L1.513,1.766C1.135,1.136 0.63,0.505 0.126,-0.126L0,1.64Z" style="fill:white;fill-rule:nonzero;"/>
        </g>
    </g>
</svg>
